<svg xmlns="http://www.w3.org/2000/svg" width="288.436" height="124.66" viewBox="0 0 288.436 124.66">
  <g id="Group_1" data-name="Group 1" transform="translate(174.7 177.81)">
    <path id="Path_1" data-name="Path 1" d="M50.171,0,38.818-30.762q-.806-2.051-2.637-9.009V0H6.812V-121.81h29.37v78.3q.952-3.076,2.087-6.116t2.38-6.189L49.02-76.95H80.81l-18.334,34.1L83.936,0Zm70.215-76.95V0H93.236V-76.95ZM91.436-106.5a14.766,14.766,0,0,1,1.2-5.925,15.561,15.561,0,0,1,3.3-4.875,15.561,15.561,0,0,1,4.875-3.3,14.766,14.766,0,0,1,5.925-1.2,14.766,14.766,0,0,1,5.925,1.2,15.561,15.561,0,0,1,4.875,3.3,15.561,15.561,0,0,1,3.3,4.875,14.766,14.766,0,0,1,1.2,5.925,14.766,14.766,0,0,1-1.2,5.925,15.561,15.561,0,0,1-3.3,4.875,15.561,15.561,0,0,1-4.875,3.3,14.766,14.766,0,0,1-5.925,1.2,14.766,14.766,0,0,1-5.925-1.2,15.561,15.561,0,0,1-4.875-3.3,15.561,15.561,0,0,1-3.3-4.875A14.766,14.766,0,0,1,91.436-106.5Zm77.85,52.2V0h-27.15V-54.3h-9V-76.95h9v-23.1h27.15v23.1h15.45V-54.3Z" transform="translate(-71 -56)" fill="#35c3ed"/>
    <path id="Path_2" data-name="Path 2" d="M36.45-76.95V-33.6q0,14.25,13.8,14.25T64.05-33.6V-76.95H91.2v48.6q0,15.6-10.275,23.4T50.25,2.85q-20.4,0-30.675-7.8T9.3-28.35v-48.6Zm96.6,0V0H105.9V-76.95ZM104.1-106.5a14.766,14.766,0,0,1,1.2-5.925,15.561,15.561,0,0,1,3.3-4.875,15.561,15.561,0,0,1,4.875-3.3,14.766,14.766,0,0,1,5.925-1.2,14.766,14.766,0,0,1,5.925,1.2,15.561,15.561,0,0,1,4.875,3.3,15.561,15.561,0,0,1,3.3,4.875,14.766,14.766,0,0,1,1.2,5.925,14.766,14.766,0,0,1-1.2,5.925,15.561,15.561,0,0,1-3.3,4.875,15.561,15.561,0,0,1-4.875,3.3,14.766,14.766,0,0,1-5.925,1.2,14.766,14.766,0,0,1-5.925-1.2,15.561,15.561,0,0,1-4.875-3.3,15.561,15.561,0,0,1-3.3-4.875A14.766,14.766,0,0,1,104.1-106.5Z" transform="translate(-184 -56)"/>
  </g>
</svg>
